<svg id="Layer_1" data-name="Layer 1" xmlns="http://www.w3.org/2000/svg" xmlns:xlink="http://www.w3.org/1999/xlink" viewBox="0 0 547 547"><defs><style>.cls-1{fill:url(#linear-gradient);}.cls-2{fill:#07948a;opacity:0.13;}.cls-3{fill:#fff;}</style><linearGradient id="linear-gradient" x1="39.94" y1="25.93" x2="503.51" y2="517.31" gradientUnits="userSpaceOnUse"><stop offset="0" stop-color="#8dc33f"/><stop offset="1" stop-color="#00a7a7"/></linearGradient></defs><rect class="cls-1" width="547" height="547" rx="139.07"/><path class="cls-2" d="M300,76.74C176.87,76.76,76.77,176.87,76.75,300S176.87,523.23,300,523.25,523.23,423.11,523.25,300,423.13,76.76,300,76.74Zm-.69,41.52A95.11,95.11,0,0,1,378.64,161c-3.5-.21-7-.45-10.56-.45a170.49,170.49,0,0,0-78.66,19.23A172.37,172.37,0,0,0,235,170.89a169.86,169.86,0,0,0-21.53,1.41A95.35,95.35,0,0,1,299.31,118.26ZM235,210.06c4.09,0,8.1.35,12.09.72a172.64,172.64,0,0,0-32.79,45.62,94.45,94.45,0,0,1-10.25-42.61A132.31,132.31,0,0,1,235,210.06Zm-10.66,228a94.45,94.45,0,0,1-83.91-138,174.2,174.2,0,0,0,60.14,68.76A170.62,170.62,0,0,0,233,437.51C230.11,437.77,227.27,438.07,224.35,438.07Zm15.89-91.7-.09,0A117.32,117.32,0,0,1,197,314.59l-.07-.08-.1-.1A133.79,133.79,0,0,1,163,239.76l-1.8-15.8-12.86,9.34c-2.66,1.93-5.11,3.87-7.43,5.77h0A134.53,134.53,0,0,0,122.53,257a182.51,182.51,0,0,1,49.8-87.41A133.58,133.58,0,0,0,318.75,346.36a95.26,95.26,0,0,1-1,11.14c-3.07.19-6.21.46-9.18.53h-.3l-.3,0c-4,.35-7.86.58-11.75.58a133.34,133.34,0,0,1-55.87-12.22ZM287,307.92a94.7,94.7,0,0,1,12.5-21.65,94.28,94.28,0,0,1,12.38,21.62,94.33,94.33,0,0,1-12.55.89A93.07,93.07,0,0,1,287,307.92Zm14.81,89.67a95.1,95.1,0,0,1-28.32,26.6,133,133,0,0,1-23.59-32.86,172.05,172.05,0,0,0,46.33,6.47C298.09,397.8,299.93,397.66,301.79,397.59Zm67.61-46.24,0,2.38c0,.77-.07,1.56-.12,2.36l-.24,2.83a101.32,101.32,0,0,1-10.43,37.88l-.16.31-.13.3a131.82,131.82,0,0,1-26.36,39.76l-.11.11-.65.69c-.92.93-1.82,1.82-2.72,2.69l-.69.67-2.34,2.18-.4.37c-.84.76-1.67,1.47-2.49,2.19l-.55.45,0,0c-1.79,1.52-3.44,2.83-4.85,3.91L306,458.85,318.24,466l.14.09c.53.27,9.51,5.07,24.37,8.71l4.58,1.12.39-.33,1.55.28A181.11,181.11,0,0,1,247.92,475c62.54-11.19,110.16-65.83,110.18-131.55a132.93,132.93,0,0,0-28.86-82.73c2.46-1.35,5-2.5,7.57-3.63a133.35,133.35,0,0,1,28.42,55.14l.83,3.37c.07.41.15.8.22,1.22l0,.14,0,.17a135.94,135.94,0,0,1,2.21,15.62V333a144.24,144.24,0,0,1,.86,15.49C369.43,349.43,369.42,350.38,369.4,351.35Zm72.88,60.16a94.89,94.89,0,0,1-62.6,27.69,172.06,172.06,0,0,0,28-82.29,174,174,0,0,0,47.5-63.9,94.94,94.94,0,0,1-12.93,118.5Zm-62.62-162.4A94.44,94.44,0,0,1,424.58,263a133.71,133.71,0,0,1-21,41.72A172.29,172.29,0,0,0,379.66,249.11ZM336.3,203.73a130.73,130.73,0,0,1,31.74-4l2.08,0h.2A127,127,0,0,1,400,203.23c1,.24,2,.51,3.06.78l.46.13q3.48.95,6.89,2.12l1.21.42-.06,0,2.35.86c2,.79,4,1.59,6,2.48l12,5.36,2.37,1.18v-.12h0l-.19-2.31L433,200.16a124.4,124.4,0,0,0-7.78-33,182.75,182.75,0,0,1,52.48,90.53,132.48,132.48,0,0,0-130.18-44.91,143.43,143.43,0,0,0-42.84,17,134.86,134.86,0,0,0-54.56,65.1c-2.52-1.54-4.9-3.24-7.26-5a132.63,132.63,0,0,1,50.05-66.4C304.8,214.08,318.94,208.3,336.3,203.73Z" transform="translate(-26.5 -26.5)"/><polygon class="cls-2" points="300.68 423.24 300.68 423.24 300.68 423.24 300.68 423.24"/><path class="cls-3" d="M300,86C182,86,86,182,86,300s96,214,214,214,214-96,214-214S418,86,300,86Zm22.4,144.61a125.81,125.81,0,0,0-67.3,77.58,104.84,104.84,0,0,1-23.21-14.92c9.61-33.63,31.72-61.63,60.2-80.6,8.91-5.94,20.14-11.57,28-13.77a142.72,142.72,0,0,1,48-8.43l2.18,0a135.88,135.88,0,0,1,31.92,3.71c1.1.26,2.19.54,3.3.84l.47.12c2.5.68,5,1.45,7.51,2.32.4.12.81.28,1.2.41l2.49.91c2.19.82,4.37,1.71,6.56,2.69,0-.22,0-.43,0-.64l0,0c-1.49-19.06-9.55-37.46-14.64-47.41a124.39,124.39,0,0,0-13.68-20A192.11,192.11,0,0,1,492,299.81a125.1,125.1,0,0,0-147-77.14A140.83,140.83,0,0,0,322.4,230.63Zm113,28.32a143.15,143.15,0,0,1-37.43,66.52,163.27,163.27,0,0,0-36-85,105.72,105.72,0,0,1,13-.81A103.91,103.91,0,0,1,435.35,259ZM299.5,272a103.74,103.74,0,0,1,24.71,43,103.78,103.78,0,0,1-24.9,3,104.89,104.89,0,0,1-24.72-3A104.38,104.38,0,0,1,299.5,272Zm-83.74,4.27a103.88,103.88,0,0,1-21-62.72c0-2.35.11-4.68.26-7a142.3,142.3,0,0,1,72.81-1.89A163.08,163.08,0,0,0,215.76,276.24ZM299.31,109a104.6,104.6,0,0,1,95.94,63.17,161.49,161.49,0,0,0-105,17.61A163.07,163.07,0,0,0,199,184.22,104.7,104.7,0,0,1,299.31,109Zm-97.4,26A125.07,125.07,0,0,0,327.84,335.36c.21,2.69.35,5.4.35,8.13a103.56,103.56,0,0,1-2.56,22.84c-5.81.53-11.42.84-16.84,1-4.15.38-8.33.61-12.58.61a142.31,142.31,0,0,1-59.74-13.07A126.28,126.28,0,0,1,190,320.63,142.84,142.84,0,0,1,153.8,240.8c-2.46,1.79-4.76,3.61-7,5.45a125,125,0,0,0-38.78,53A192.08,192.08,0,0,1,201.91,135Zm116.73,251.9a104.58,104.58,0,0,1-46.87,48.9A141.92,141.92,0,0,1,233.4,376a162.2,162.2,0,0,0,85.24,10.93ZM120.51,343.49A103.21,103.21,0,0,1,142,280.31a164.85,164.85,0,0,0,66.75,82.89A161.91,161.91,0,0,0,250.64,444,103.82,103.82,0,0,1,120.51,343.49ZM300,492a190.86,190.86,0,0,1-95.78-25.64,124.36,124.36,0,0,0,110.92-207.8,103.87,103.87,0,0,1,24.15-12.59,143.21,143.21,0,0,1,35,64.15l.13-.13c.12.46.23.95.34,1.46.24,1.3.49,2.61.71,3.9A143.77,143.77,0,0,1,377.8,332a150.45,150.45,0,0,1,.87,19.49h.09c-.05,2.67-.21,5.39-.43,8.15l-.1,0A110.32,110.32,0,0,1,366.81,401,141,141,0,0,1,338.6,443.6c-.29.29-.56.59-.84.87-1,1-1.91,1.94-2.86,2.85l-.76.72c-.82.79-1.64,1.54-2.43,2.26l-.53.49q-1.41,1.26-2.73,2.4l-.55.45c-1.89,1.6-3.66,3-5.24,4.21l.13.06s8.31,4.49,22.16,7.87a.53.53,0,0,1,.12-.1,123.56,123.56,0,0,0,47.59,2.38A190.6,190.6,0,0,1,300,492ZM375,448.71a105.39,105.39,0,0,1-13-.82,163.17,163.17,0,0,0,36.87-95.54,164.61,164.61,0,0,0,53.67-78.19A104.46,104.46,0,0,1,375,448.71Z" transform="translate(-26.5 -26.5)"/></svg>