<?xml version="1.0" encoding="UTF-8" standalone="no"?>
<svg
   xmlns:dc="http://purl.org/dc/elements/1.1/"
   xmlns:cc="http://creativecommons.org/ns#"
   xmlns:rdf="http://www.w3.org/1999/02/22-rdf-syntax-ns#"
   xmlns:svg="http://www.w3.org/2000/svg"
   xmlns="http://www.w3.org/2000/svg"
   xmlns:sodipodi="http://sodipodi.sourceforge.net/DTD/sodipodi-0.dtd"
   xmlns:inkscape="http://www.inkscape.org/namespaces/inkscape"
   version="1.1"
   id="svg2"
   xml:space="preserve"
   width="162.32668"
   height="162.32668"
   viewBox="0 0 162.32668 162.32668"
   sodipodi:docname="GABA.ai"><metadata
     id="metadata8"><rdf:RDF><cc:Work
         rdf:about=""><dc:format>image/svg+xml</dc:format><dc:type
           rdf:resource="http://purl.org/dc/dcmitype/StillImage" /></cc:Work></rdf:RDF></metadata><defs
     id="defs6"><linearGradient
       x1="0"
       y1="0"
       x2="1"
       y2="0"
       gradientUnits="userSpaceOnUse"
       gradientTransform="matrix(95.575706,-85.964668,-85.964668,-95.575706,11.838892,100.55119)"
       spreadMethod="pad"
       id="linearGradient28"><stop
         style="stop-opacity:1;stop-color:#8dc23f"
         offset="0"
         id="stop24" /><stop
         style="stop-opacity:1;stop-color:#00a8a6"
         offset="1"
         id="stop26" /></linearGradient><linearGradient
       x1="0"
       y1="0"
       x2="1"
       y2="0"
       gradientUnits="userSpaceOnUse"
       gradientTransform="matrix(95.575439,-85.964439,-85.964439,-95.575439,14.038447,102.99697)"
       spreadMethod="pad"
       id="linearGradient48"><stop
         style="stop-opacity:1;stop-color:#8dc23f"
         offset="0"
         id="stop44" /><stop
         style="stop-opacity:1;stop-color:#00a8a6"
         offset="1"
         id="stop46" /></linearGradient></defs><sodipodi:namedview
     pagecolor="#ffffff"
     bordercolor="#666666"
     borderopacity="1"
     objecttolerance="10"
     gridtolerance="10"
     guidetolerance="10"
     inkscape:pageopacity="0"
     inkscape:pageshadow="2"
     inkscape:window-width="640"
     inkscape:window-height="480"
     id="namedview4" /><g
     id="g10"
     inkscape:groupmode="layer"
     inkscape:label="GABA"
     transform="matrix(1.3333333,0,0,-1.3333333,0,162.32667)"><g
       id="g12"><g
         id="g14"><g
           id="g20"><g
             id="g22"><path
               d="M 58.813,73.366 C 52.799,68.123 48.656,60.944 47.146,53.154 v 0 l -0.531,-2.741 2.642,-0.9 c 3.745,-1.278 7.648,-1.926 11.6,-1.926 v 0 c 3.965,0 7.879,0.652 11.633,1.937 v 0 l 2.628,0.899 -0.516,2.727 C 73.13,60.935 69.021,68.113 63.031,73.363 v 0 l -2.107,1.845 z M 54.137,54.771 c 1.313,4.359 3.643,8.395 6.777,11.732 v 0 c 3.112,-3.336 5.419,-7.368 6.708,-11.723 v 0 C 65.409,54.259 63.135,53.998 60.86,53.998 v 0 c -2.261,0 -4.522,0.257 -6.723,0.773"
               style="fill:url(#linearGradient28);stroke:none"
               id="path30" /></g></g></g></g><g
       id="g32"><g
         id="g34"><g
           id="g40"><g
             id="g42"><path
               d="M 60.872,121.745 C 27.308,121.745 0,94.438 0,60.872 v 0 C 0,27.308 27.308,0 60.872,0 v 0 c 33.566,0 60.873,27.308 60.873,60.872 v 0 c 0,33.566 -27.307,60.873 -60.873,60.873 z M 6.409,60.872 c 0,30.032 24.432,54.464 54.463,54.464 v 0 c 30.032,0 54.465,-24.432 54.465,-54.464 v 0 C 115.337,30.841 90.904,6.408 60.872,6.408 v 0 C 30.841,6.408 6.409,30.841 6.409,60.872"
               style="fill:url(#linearGradient48);stroke:none"
               id="path50" /></g></g></g></g></g></svg>
