<?xml version="1.0" encoding="UTF-8" standalone="no"?>
<svg
   xmlns:dc="http://purl.org/dc/elements/1.1/"
   xmlns:cc="http://creativecommons.org/ns#"
   xmlns:rdf="http://www.w3.org/1999/02/22-rdf-syntax-ns#"
   xmlns:svg="http://www.w3.org/2000/svg"
   xmlns="http://www.w3.org/2000/svg"
   xmlns:sodipodi="http://sodipodi.sourceforge.net/DTD/sodipodi-0.dtd"
   xmlns:inkscape="http://www.inkscape.org/namespaces/inkscape"
   version="1.1"
   id="svg2"
   xml:space="preserve"
   width="161.98399"
   height="161.98399"
   viewBox="0 0 161.98399 161.98399"
   sodipodi:docname="GOJ.ai"><metadata
     id="metadata8"><rdf:RDF><cc:Work
         rdf:about=""><dc:format>image/svg+xml</dc:format><dc:type
           rdf:resource="http://purl.org/dc/dcmitype/StillImage" /></cc:Work></rdf:RDF></metadata><defs
     id="defs6"><linearGradient
       x1="0"
       y1="0"
       x2="1"
       y2="0"
       gradientUnits="userSpaceOnUse"
       gradientTransform="matrix(70.45343,-99.953705,-99.953705,-70.45343,25.759863,110.3778)"
       spreadMethod="pad"
       id="linearGradient28"><stop
         style="stop-opacity:1;stop-color:#8dc23f"
         offset="0"
         id="stop24" /><stop
         style="stop-opacity:1;stop-color:#00a8a6"
         offset="1"
         id="stop26" /></linearGradient></defs><sodipodi:namedview
     pagecolor="#ffffff"
     bordercolor="#666666"
     borderopacity="1"
     objecttolerance="10"
     gridtolerance="10"
     guidetolerance="10"
     inkscape:pageopacity="0"
     inkscape:pageshadow="2"
     inkscape:window-width="640"
     inkscape:window-height="480"
     id="namedview4" /><g
     id="g10"
     inkscape:groupmode="layer"
     inkscape:label="GOJ"
     transform="matrix(1.3333333,0,0,-1.3333333,0,161.984)"><g
       id="g12"><g
         id="g14"><g
           id="g20"><g
             id="g22"><path
               d="M 60.743,121.488 C 27.249,121.488 0,94.238 0,60.746 v 0 C 0,27.252 27.249,0 60.743,0 v 0 c 13.044,0 25.131,4.146 35.04,11.172 v 0 c 2.733,1.937 5.304,4.084 7.678,6.435 v 0 c 0.071,0.07 0.145,0.136 0.215,0.206 v 0 c 0.062,0.061 0.119,0.127 0.179,0.188 v 0 c 10.892,10.984 17.633,26.091 17.633,42.745 v 0 c 0,33.492 -27.249,60.742 -60.745,60.742 z m -0.195,-6.523 c 12.194,0 22.68,-7.392 27.234,-17.931 v 0 C 85.278,97.461 82.7,97.69 80.07,97.69 v 0 c -7.457,0 -14.501,-1.786 -20.742,-4.946 v 0 C 54.964,90.477 47.288,85.549 41.488,76.737 v 0 l -10e-4,-0.003 c -0.213,-0.322 -0.422,-0.652 -0.63,-0.988 v 0 c -0.174,-0.281 -0.346,-0.563 -0.515,-0.85 v 0 C 40.29,74.807 40.236,74.717 40.184,74.629 v 0 c -0.246,-0.426 -0.486,-0.853 -0.717,-1.285 v 0 C 39.462,73.338 39.459,73.33 39.455,73.322 v 0 c -0.745,-1.389 -1.421,-2.82 -2.024,-4.288 v 0 c -0.015,-0.035 -0.03,-0.073 -0.044,-0.11 v 0 c -0.194,-0.474 -0.38,-0.953 -0.559,-1.436 v 0 c 0,0 -0.19,0.242 -0.499,0.693 v 0 c -2.793,3.938 -4.652,8.583 -5.245,13.608 v 0 c -0.65,4.76 -0.222,10.361 2.686,16.266 v 0 c 0.039,0.08 0.08,0.156 0.118,0.236 v 0 c 0.07,0.137 0.137,0.273 0.208,0.412 v 0 c 0.858,1.686 1.873,3.278 3.023,4.762 v 0 c 0.114,0.15 0.224,0.301 0.341,0.451 v 0 l 0.012,-0.002 c 5.442,6.735 13.763,11.051 23.076,11.051 m 27.279,-6.943 c 0.584,-0.336 1.161,-0.686 1.733,-1.043 v 0 c 0.132,-0.082 0.262,-0.17 0.394,-0.253 v 0 c 0.439,-0.28 0.875,-0.566 1.306,-0.858 v 0 c 0.149,-0.102 0.297,-0.203 0.444,-0.305 v 0 c 0.437,-0.304 0.87,-0.613 1.297,-0.928 v 0 c 0.109,-0.08 0.218,-0.159 0.327,-0.24 v 0 c 2.246,-1.683 4.359,-3.534 6.319,-5.534 v 0 c 0.01,-0.01 0.02,-0.02 0.029,-0.031 v 0 c 0.495,-0.506 0.981,-1.021 1.456,-1.544 v 0 c 0,0 0,0 0,0.001 v 0 c 4.36,-4.816 7.875,-10.409 10.305,-16.548 v 0 c 0.073,-0.184 0.144,-0.368 0.215,-0.553 v 0 c 0.161,-0.422 0.32,-0.843 0.471,-1.269 v 0 c 0.095,-0.271 0.184,-0.543 0.276,-0.815 v 0 c 0.189,-0.562 0.37,-1.129 0.541,-1.698 v 0 c 0.127,-0.422 0.252,-0.845 0.369,-1.271 v 0 c 0.078,-0.284 0.149,-0.567 0.222,-0.851 v 0 c 0.117,-0.456 0.228,-0.914 0.333,-1.374 v 0 c 0.054,-0.238 0.109,-0.474 0.161,-0.714 v 0 c 0.15,-0.703 0.292,-1.41 0.415,-2.124 v 0 c 0.005,-0.023 0.009,-0.045 0.012,-0.069 v 0 c 0.052,-0.304 0.096,-0.609 0.142,-0.915 v 0 c 0.037,-0.237 0.078,-0.473 0.111,-0.711 v 0 c 0.013,-0.09 0.025,-0.178 0.037,-0.268 v 0 c 0.012,-0.082 0.02,-0.167 0.031,-0.25 v 0 c 0.063,-0.48 0.124,-0.963 0.174,-1.448 v 0 c 10e-4,-0.003 10e-4,-0.009 10e-4,-0.011 v 0 c 0.02,-0.187 0.032,-0.376 0.049,-0.562 v 0 c 0.037,-0.393 0.073,-0.784 0.102,-1.179 v 0 c 0.006,-0.108 0.014,-0.218 0.021,-0.326 v 0 c 0.03,-0.459 0.053,-0.92 0.071,-1.381 v 0 c 0.006,-0.159 0.013,-0.318 0.018,-0.477 v 0 c 0.006,-0.216 0.007,-0.433 0.012,-0.648 v 0 c 0.007,-0.342 0.018,-0.683 0.019,-1.026 v 0 h -0.002 c -3.343,8.787 -10.074,15.913 -18.587,19.778 v 0 c -0.005,0 -0.006,0.002 -0.011,0.004 v 0 c -0.328,0.151 -0.661,0.291 -0.995,0.43 v 0 c -0.187,0.076 -0.373,0.152 -0.564,0.228 v 0 c -0.15,0.059 -0.301,0.116 -0.452,0.176 v 0 c -0.263,0.098 -0.531,0.2 -0.808,0.295 v 0 c -0.21,0.077 -0.421,0.149 -0.633,0.219 v 0 c -0.176,0.058 -0.355,0.115 -0.535,0.174 v 0 c -0.307,0.095 -0.614,0.189 -0.921,0.275 v 0 c -0.074,0.022 -0.147,0.045 -0.221,0.065 v 0 c -3.021,0.838 -6.204,1.289 -9.49,1.289 v 0 c -1.372,0 -2.725,-0.084 -4.058,-0.237 v 0 C 74.585,83.071 70.978,82.097 67.225,80.333 v 0 c 1.715,-1.381 3.249,-2.811 4.615,-4.261 v 0 c 0.021,0.005 0.04,0.015 0.059,0.021 v 0 c 3.928,-4.169 6.984,-9.158 8.885,-14.686 v 0 c 0.42,-1.207 0.767,-2.38 1.051,-3.512 v 0 l 0.025,0.026 c 0.033,-0.133 0.063,-0.271 0.097,-0.418 v 0 c 0.029,-0.156 0.055,-0.312 0.084,-0.469 v 0 c 0.819,-3.587 1.02,-6.672 1.022,-8.817 v 0 c 0.02,-0.689 0.029,-1.384 0.013,-2.099 v 0 c 0.011,0 0.017,-0.002 0.026,-0.002 v 0 c -0.015,-0.76 -0.057,-1.531 -0.119,-2.314 v 0 c -0.011,-0.003 -0.019,-0.004 -0.029,-0.004 v 0 c -0.32,-3.83 -1.266,-7.869 -3.245,-11.735 v 0 C 77.493,26.839 74.452,22.841 71.703,19.979 v 0 c -0.081,-0.084 -0.16,-0.167 -0.239,-0.246 v 0 c -0.277,-0.28 -0.544,-0.552 -0.811,-0.808 v 0 c -0.074,-0.068 -0.144,-0.138 -0.216,-0.207 v 0 c -0.233,-0.221 -0.465,-0.435 -0.691,-0.641 v 0 c -0.051,-0.046 -0.1,-0.096 -0.149,-0.138 v 0 C 69.329,17.7 69.07,17.473 68.82,17.258 v 0 c -0.054,-0.046 -0.104,-0.087 -0.154,-0.13 v 0 c -0.539,-0.453 -1.041,-0.853 -1.488,-1.195 v 0 l 0.035,-0.016 c 0,0 2.362,-1.273 6.294,-2.234 v 0 c 0.009,0.011 0.021,0.023 0.031,0.029 v 0 c 2.72,-0.67 5.559,-1.041 8.483,-1.041 v 0 c 1.708,0 3.386,0.127 5.028,0.363 v 0 C 84.646,11.704 82.13,10.551 79.524,9.589 v 0 C 79.463,9.567 79.402,9.544 79.342,9.521 v 0 C 78.852,9.344 78.359,9.172 77.864,9.007 v 0 C 77.737,8.965 77.606,8.926 77.478,8.885 v 0 C 76.731,8.643 75.975,8.418 75.214,8.208 v 0 C 74.877,8.115 74.539,8.023 74.2,7.936 v 0 C 73.864,7.851 73.527,7.768 73.19,7.689 v 0 C 72.621,7.555 72.049,7.43 71.474,7.315 v 0 C 71.247,7.269 71.018,7.227 70.789,7.184 v 0 C 70.178,7.07 69.563,6.965 68.945,6.872 v 0 C 68.738,6.841 68.531,6.81 68.324,6.781 v 0 C 67.57,6.676 66.813,6.581 66.049,6.507 v 0 C 66.043,6.506 66.034,6.505 66.029,6.505 v 0 C 65.501,6.453 64.97,6.413 64.437,6.377 v 0 C 64.333,6.369 64.228,6.362 64.123,6.357 v 0 C 63.658,6.328 63.193,6.305 62.725,6.289 v 0 C 62.626,6.286 62.529,6.279 62.429,6.277 v 0 C 61.87,6.26 61.309,6.249 60.745,6.249 v 0 c -0.495,0 -0.989,0.011 -1.48,0.025 v 0 0.001 c -1.156,0.03 -2.302,0.099 -3.439,0.2 v 0 c -0.02,0.002 -0.04,0.003 -0.059,0.006 v 0 c -1.115,0.101 -2.219,0.238 -3.313,0.406 v 0 C 52.407,6.894 52.36,6.9 52.313,6.908 v 0 c -1.071,0.166 -2.131,0.366 -3.18,0.594 v 0 c -0.069,0.016 -0.136,0.03 -0.205,0.044 v 0 c -1.03,0.229 -2.05,0.487 -3.058,0.774 v 0 c -0.082,0.024 -0.165,0.048 -0.248,0.072 v 0 c -0.994,0.287 -1.977,0.601 -2.948,0.943 v 0 C 42.586,9.366 42.498,9.4 42.41,9.431 v 0 c -0.965,0.346 -1.919,0.716 -2.858,1.113 v 0 c -0.082,0.035 -0.163,0.072 -0.245,0.108 v 0 c -0.944,0.405 -1.878,0.834 -2.795,1.29 v 0 c -0.058,0.03 -0.114,0.061 -0.173,0.09 v 0 c -0.935,0.47 -1.856,0.963 -2.759,1.484 v 0 c -0.008,0.006 -0.015,0.009 -0.023,0.014 v 0 c 1.861,-0.304 3.766,-0.469 5.712,-0.469 v 0 c 17.931,0 32.785,13.425 35.039,30.754 v 0 c -2.021,-0.77 -4.114,-1.387 -6.274,-1.831 v 0 C 68.029,41.96 68.027,41.937 68.021,41.915 v 0 c -0.202,-0.019 -0.401,-0.034 -0.6,-0.051 v 0 c -2.485,-0.47 -5.049,-0.721 -7.672,-0.721 v 0 c -21.035,0 -38.355,15.889 -40.623,36.319 v 0 c -0.653,-0.48 -1.27,-0.967 -1.867,-1.458 v 0 C 12.404,72.124 8.593,66.995 6.312,61.11 v 0 0.005 C 6.292,61.067 6.27,61.018 6.251,60.969 v 0 c 0.004,0.935 0.038,1.863 0.089,2.787 v 0 c 0.007,0.14 0.013,0.279 0.022,0.418 v 0 c 0.057,0.906 0.135,1.806 0.236,2.698 v 0 c 0.013,0.111 0.027,0.222 0.04,0.332 v 0 c 0.221,1.856 0.534,3.683 0.937,5.476 v 0 c 0.021,0.095 0.041,0.188 0.062,0.282 v 0 c 0.208,0.899 0.435,1.792 0.687,2.674 v 0 c 0.011,0.039 0.023,0.077 0.034,0.116 v 0 c 0.521,1.815 1.135,3.593 1.835,5.326 v 0 c 0.022,0.053 0.044,0.107 0.065,0.16 v 0 c 0.353,0.865 0.726,1.722 1.121,2.565 v 0 c 2.478,5.284 5.78,10.108 9.74,14.304 v 0 c 0.35,0.369 0.701,0.735 1.06,1.095 v 0 c 0.142,0.143 0.288,0.282 0.432,0.423 v 0 c 0.29,0.285 0.582,0.569 0.879,0.847 v 0 c 0.176,0.167 0.356,0.328 0.534,0.491 v 0 c 0.27,0.247 0.542,0.492 0.816,0.734 v 0 c 0.199,0.174 0.4,0.347 0.601,0.519 v 0 c 0.26,0.22 0.521,0.441 0.786,0.657 v 0 c 0.217,0.178 0.436,0.355 0.656,0.532 v 0 c 0.253,0.2 0.509,0.399 0.767,0.596 v 0 c 0.232,0.179 0.466,0.358 0.702,0.533 v 0 c 0.25,0.185 0.504,0.366 0.758,0.548 v 0 c 0.245,0.177 0.49,0.354 0.739,0.527 v 0 c 0.257,0.176 0.517,0.347 0.776,0.52 v 0 c 0.249,0.166 0.496,0.334 0.748,0.496 v 0 c 0.325,0.209 0.655,0.41 0.986,0.612 v 0 c 0.179,0.11 0.356,0.225 0.538,0.334 v 0 c -4.923,-6.1 -7.879,-13.85 -7.879,-22.278 v 0 c 0,-11.992 5.974,-22.617 15.103,-29.055 v 0 c 2.053,18.268 16.375,32.821 34.535,35.225 v 0 c 0.062,0.009 0.126,0.017 0.189,0.026 v 0 c 0.398,0.05 0.796,0.095 1.198,0.132 v 0 c 1.325,0.135 2.668,0.213 4.027,0.213 v 0 c 0.205,0 0.411,-0.01 0.619,-0.011 v 0 c 2.836,0.001 5.899,-0.292 9.061,-1.052 v 0 c 0.312,-0.075 0.623,-0.155 0.937,-0.242 v 0 c 0.044,-0.01 0.089,-0.02 0.134,-0.033 v 0 c 0.708,-0.194 1.417,-0.41 2.132,-0.656 v 0 c 0.112,-0.037 0.228,-0.08 0.34,-0.119 v 0 c 0.235,-0.085 0.471,-0.168 0.709,-0.256 v 0 c 0.62,-0.236 1.24,-0.488 1.861,-0.764 v 0 c -0.001,0.061 -0.009,0.121 -0.016,0.182 v 0 c 0.007,-0.004 0.011,-0.006 0.016,-0.006 v 0 c -0.424,5.41 -2.71,10.635 -4.157,13.457 v 0 c -1.089,1.992 -2.373,3.865 -3.812,5.6 v 0 c 0,0 0,0 10e-4,0 v 0 c -0.023,0.029 -0.046,0.057 -0.068,0.088 m -9.496,-89.26 c 6.115,7.469 9.961,16.86 10.466,27.122 v 0 c 0.582,12.976 -4.394,22.902 -7.69,27.984 v 0 c -0.866,1.305 -1.791,2.566 -2.78,3.773 v 0 c 13.278,1.756 21.861,-5.347 25.702,-9.578 v 0 c 0.002,0.007 0.004,0.01 0.005,0.016 v 0 c 4.758,-5.265 7.662,-12.236 7.662,-19.877 v 0 c 0,-16.363 -13.309,-29.674 -29.675,-29.674 v 0 c -1.247,0 -2.481,0.082 -3.69,0.234 M 9.791,48.398 c 0,6.742 2.282,12.967 6.11,17.936 v 0 c 0.186,-0.511 0.385,-1.012 0.586,-1.513 v 0 c 2.73,-6.518 15.557,-31.764 49.547,-28.759 v 0 c 0,0 -0.117,-0.268 -0.359,-0.735 v 0 C 63.322,30.593 59.737,26.582 55.334,23.709 v 0 c -3.022,-2.037 -6.743,-3.71 -11.238,-4.392 v 0 c -1.571,-0.261 -3.183,-0.398 -4.827,-0.398 v 0 c -16.253,0 -29.478,13.222 -29.478,29.479"
               style="fill:url(#linearGradient28);stroke:none"
               id="path30" /></g></g></g></g></g></svg>
