<?xml version="1.0" encoding="UTF-8" standalone="no"?>
<svg
   xmlns:dc="http://purl.org/dc/elements/1.1/"
   xmlns:cc="http://creativecommons.org/ns#"
   xmlns:rdf="http://www.w3.org/1999/02/22-rdf-syntax-ns#"
   xmlns:svg="http://www.w3.org/2000/svg"
   xmlns="http://www.w3.org/2000/svg"
   xmlns:sodipodi="http://sodipodi.sourceforge.net/DTD/sodipodi-0.dtd"
   xmlns:inkscape="http://www.inkscape.org/namespaces/inkscape"
   version="1.1"
   id="svg2"
   xml:space="preserve"
   width="161.98132"
   height="161.98132"
   viewBox="0 0 161.98132 161.98132"
   sodipodi:docname="HANU.ai"><metadata
     id="metadata8"><rdf:RDF><cc:Work
         rdf:about=""><dc:format>image/svg+xml</dc:format><dc:type
           rdf:resource="http://purl.org/dc/dcmitype/StillImage" /></cc:Work></rdf:RDF></metadata><defs
     id="defs6"><linearGradient
       x1="0"
       y1="0"
       x2="1"
       y2="0"
       gradientUnits="userSpaceOnUse"
       gradientTransform="matrix(70.462669,-99.96682,-99.96682,-70.462669,25.7596,110.37587)"
       spreadMethod="pad"
       id="linearGradient28"><stop
         style="stop-opacity:1;stop-color:#8dc23f"
         offset="0"
         id="stop24" /><stop
         style="stop-opacity:1;stop-color:#00a8a6"
         offset="1"
         id="stop26" /></linearGradient></defs><sodipodi:namedview
     pagecolor="#ffffff"
     bordercolor="#666666"
     borderopacity="1"
     objecttolerance="10"
     gridtolerance="10"
     guidetolerance="10"
     inkscape:pageopacity="0"
     inkscape:pageshadow="2"
     inkscape:window-width="640"
     inkscape:window-height="480"
     id="namedview4" /><g
     id="g10"
     inkscape:groupmode="layer"
     inkscape:label="HANU"
     transform="matrix(1.3333333,0,0,-1.3333333,0,161.98133)"><g
       id="g12"><g
         id="g14"><g
           id="g20"><g
             id="g22"><path
               d="M 60.743,121.486 C 27.248,121.486 0,94.236 0,60.745 v 0 C 0,27.25 27.248,0 60.743,0 v 0 c 33.496,0 60.743,27.25 60.743,60.745 v 0 c 0,33.491 -27.247,60.741 -60.743,60.741 z m 0,-6.247 c 26.916,0 49.273,-19.518 53.696,-45.169 v 0 c 0.005,-0.024 0.01,-0.046 0.012,-0.07 v 0 c 0.091,-0.533 0.175,-1.067 0.25,-1.604 v 0 c 0.013,-0.098 0.027,-0.194 0.04,-0.289 v 0 c 0.075,-0.56 0.145,-1.121 0.203,-1.685 v 0 c 10e-4,-0.008 0.003,-0.019 0.003,-0.025 v 0 c 0.058,-0.566 0.108,-1.134 0.148,-1.706 v 0 c 0.01,-0.143 0.018,-0.289 0.027,-0.431 v 0 c 0.028,-0.425 0.049,-0.852 0.066,-1.281 v 0 c 0.007,-0.168 0.014,-0.337 0.02,-0.507 v 0 c 0.015,-0.514 0.025,-1.029 0.027,-1.546 v 0 c 0,-0.042 0.005,-0.085 0.005,-0.128 v 0 c 0,10e-4 -0.003,10e-4 -0.003,10e-4 v 0 c 0,-0.018 0.003,-0.037 0.003,-0.056 v 0 C 115.24,32.437 93.653,9.173 66.048,6.506 v 0 C 66.042,6.505 66.033,6.504 66.027,6.504 v 0 C 65.5,6.452 64.967,6.413 64.436,6.376 v 0 C 64.331,6.368 64.226,6.361 64.122,6.356 v 0 C 63.657,6.327 63.192,6.305 62.724,6.288 v 0 C 62.625,6.284 62.528,6.278 62.428,6.277 v 0 C 61.87,6.26 61.308,6.248 60.743,6.248 v 0 c -0.494,0 -0.988,0.008 -1.481,0.02 v 0 0.006 c -9.339,0.25 -18.101,2.859 -25.706,7.254 v 0 c 1.859,-0.303 3.765,-0.468 5.711,-0.468 v 0 c 17.932,0 32.785,13.425 35.039,30.754 v 0 c -2.02,-0.77 -4.113,-1.387 -6.273,-1.831 v 0 C 68.028,41.959 68.025,41.936 68.02,41.914 v 0 C 67.818,41.895 67.618,41.88 67.419,41.863 v 0 c -2.484,-0.47 -5.049,-0.721 -7.671,-0.721 v 0 c -21.034,0 -38.355,15.889 -40.624,36.319 v 0 c -0.652,-0.48 -1.269,-0.968 -1.866,-1.458 v 0 C 12.361,72.091 8.524,66.911 6.25,60.965 v 0 c 0.034,8.156 1.871,15.893 5.128,22.837 v 0 c -0.007,-0.001 -0.015,-0.001 -0.021,-0.001 v 0 c 8.684,18.569 27.533,31.438 49.386,31.438 M 9.79,48.397 c 0,6.742 2.282,12.966 6.11,17.936 v 0 c 0.187,-0.511 0.385,-1.012 0.586,-1.513 v 0 C 19.215,58.302 32.044,33.056 66.033,36.061 v 0 c 0,0 -0.118,-0.268 -0.36,-0.735 v 0 C 63.321,30.592 59.736,26.581 55.333,23.708 v 0 c -3.022,-2.037 -6.744,-3.71 -11.238,-4.392 v 0 c -1.571,-0.261 -3.183,-0.398 -4.828,-0.398 v 0 C 23.014,18.918 9.79,32.14 9.79,48.397"
               style="fill:url(#linearGradient28);stroke:none"
               id="path30" /></g></g></g></g></g></svg>
