<?xml version="1.0" encoding="UTF-8" standalone="no"?>
<svg
   xmlns:dc="http://purl.org/dc/elements/1.1/"
   xmlns:cc="http://creativecommons.org/ns#"
   xmlns:rdf="http://www.w3.org/1999/02/22-rdf-syntax-ns#"
   xmlns:svg="http://www.w3.org/2000/svg"
   xmlns="http://www.w3.org/2000/svg"
   xmlns:sodipodi="http://sodipodi.sourceforge.net/DTD/sodipodi-0.dtd"
   xmlns:inkscape="http://www.inkscape.org/namespaces/inkscape"
   version="1.1"
   id="svg2"
   xml:space="preserve"
   width="161.98267"
   height="161.98132"
   viewBox="0 0 161.98267 161.98132"
   sodipodi:docname="MIA.ai"><metadata
     id="metadata8"><rdf:RDF><cc:Work
         rdf:about=""><dc:format>image/svg+xml</dc:format><dc:type
           rdf:resource="http://purl.org/dc/dcmitype/StillImage" /></cc:Work></rdf:RDF></metadata><defs
     id="defs6"><linearGradient
       x1="0"
       y1="0"
       x2="1"
       y2="0"
       gradientUnits="userSpaceOnUse"
       gradientTransform="matrix(70.462502,-99.966583,-99.966583,-70.462502,25.760477,110.37564)"
       spreadMethod="pad"
       id="linearGradient28"><stop
         style="stop-opacity:1;stop-color:#8dc23f"
         offset="0"
         id="stop24" /><stop
         style="stop-opacity:1;stop-color:#00a8a6"
         offset="1"
         id="stop26" /></linearGradient></defs><sodipodi:namedview
     pagecolor="#ffffff"
     bordercolor="#666666"
     borderopacity="1"
     objecttolerance="10"
     gridtolerance="10"
     guidetolerance="10"
     inkscape:pageopacity="0"
     inkscape:pageshadow="2"
     inkscape:window-width="640"
     inkscape:window-height="480"
     id="namedview4" /><g
     id="g10"
     inkscape:groupmode="layer"
     inkscape:label="MIA"
     transform="matrix(1.3333333,0,0,-1.3333333,0,161.98133)"><g
       id="g12"><g
         id="g14"><g
           id="g20"><g
             id="g22"><path
               d="m 60.745,121.486 c -7.328,0 -14.356,-1.304 -20.865,-3.692 v 0 C 16.632,109.265 0,86.91 0,60.746 v 0 C 0,34.577 16.632,12.221 39.88,3.693 v 0 C 46.389,1.304 53.417,0 60.745,0 v 0 0 c 33.494,0 60.742,27.25 60.742,60.746 v 0 c 0,33.49 -27.248,60.74 -60.742,60.74 z m 0,-6.307 c 9.888,0 19.157,-2.638 27.15,-7.246 v 0 c -0.024,0.03 -0.049,0.059 -0.07,0.09 v 0 c 10.655,-6.128 19.052,-15.755 23.618,-27.3 v 0 c 0.069,-0.173 0.136,-0.346 0.203,-0.519 v 0 c 0.165,-0.432 0.326,-0.864 0.48,-1.297 v 0 c 0.088,-0.249 0.17,-0.5 0.254,-0.749 v 0 c 0.2,-0.593 0.391,-1.191 0.571,-1.794 v 0 c 0.122,-0.407 0.244,-0.814 0.355,-1.224 v 0 c 0.08,-0.29 0.153,-0.579 0.227,-0.869 v 0 c 0.115,-0.449 0.225,-0.899 0.329,-1.351 v 0 c 0.055,-0.244 0.111,-0.488 0.164,-0.734 v 0 c 0.15,-0.701 0.291,-1.405 0.414,-2.116 v 0 c 0.004,-0.023 0.009,-0.046 0.012,-0.07 v 0 c 0.044,-0.256 0.08,-0.516 0.121,-0.774 v 0 c 0.044,-0.284 0.092,-0.57 0.133,-0.857 v 0 c 0.012,-0.088 0.023,-0.175 0.035,-0.262 v 0 c 0.076,-0.56 0.145,-1.121 0.204,-1.685 v 0 c 0.001,-0.008 0.003,-0.017 0.003,-0.025 v 0 c 0.032,-0.313 0.055,-0.629 0.081,-0.944 v 0 c 0.022,-0.258 0.05,-0.515 0.067,-0.775 v 0 c 0.01,-0.138 0.019,-0.279 0.028,-0.418 v 0 c 0.02,-0.344 0.037,-0.691 0.053,-1.039 v 0 c 0.004,-0.082 0.01,-0.162 0.012,-0.243 v 0 c 0.007,-0.17 0.015,-0.336 0.019,-0.505 v 0 c 0.015,-0.514 0.026,-1.03 0.028,-1.546 v 0 c 0,-0.006 0.002,-0.013 0.002,-0.019 v 0 c 0,-0.036 0.002,-0.073 0.002,-0.109 v 0 h -10e-4 c -3.345,8.786 -10.075,15.912 -18.589,19.777 v 0 c -0.004,0 -0.005,0.002 -0.009,0.004 v 0 c -0.329,0.151 -0.662,0.291 -0.996,0.43 v 0 c -0.186,0.075 -0.374,0.152 -0.564,0.228 v 0 c -0.15,0.059 -0.302,0.116 -0.452,0.176 v 0 c -0.264,0.098 -0.531,0.199 -0.808,0.295 v 0 c -0.21,0.076 -0.422,0.149 -0.633,0.219 v 0 c -0.177,0.058 -0.355,0.115 -0.536,0.174 v 0 c -0.306,0.095 -0.613,0.189 -0.92,0.275 v 0 c -0.073,0.022 -0.147,0.045 -0.221,0.065 v 0 c -3.022,0.838 -6.204,1.289 -9.49,1.289 v 0 c -1.371,0 -2.725,-0.084 -4.057,-0.237 v 0 C 74.584,83.07 70.978,82.095 67.225,80.332 v 0 c 1.716,-1.38 3.249,-2.811 4.615,-4.261 v 0 c 0.021,0.005 0.04,0.015 0.058,0.02 v 0 c 3.929,-4.167 6.985,-9.157 8.885,-14.685 v 0 c 0.421,-1.207 0.768,-2.38 1.052,-3.512 v 0 l 0.025,0.025 c 0.033,-0.132 0.064,-0.27 0.097,-0.417 v 0 c 0.029,-0.157 0.055,-0.312 0.084,-0.469 v 0 c 0.819,-3.587 1.02,-6.672 1.022,-8.816 v 0 c 0.019,-0.69 0.029,-1.385 0.013,-2.1 v 0 c 0.011,0 0.017,-0.002 0.026,-0.002 v 0 c -0.015,-0.76 -0.058,-1.531 -0.119,-2.314 v 0 c -0.011,-0.002 -0.019,-0.004 -0.03,-0.004 v 0 c -0.319,-3.83 -1.265,-7.869 -3.244,-11.734 v 0 C 77.494,26.838 74.452,22.84 71.702,19.978 v 0 c -0.08,-0.083 -0.16,-0.167 -0.238,-0.246 v 0 C 71.187,19.451 70.92,19.18 70.653,18.923 v 0 c -0.075,-0.067 -0.145,-0.138 -0.216,-0.207 v 0 c -0.233,-0.22 -0.466,-0.434 -0.691,-0.639 v 0 c -0.052,-0.047 -0.1,-0.097 -0.149,-0.139 v 0 C 69.329,17.699 69.07,17.473 68.82,17.258 v 0 C 68.766,17.211 68.716,17.17 68.666,17.127 v 0 c -0.539,-0.454 -1.041,-0.853 -1.488,-1.195 v 0 l 0.035,-0.016 c 0,0 2.362,-1.273 6.293,-2.234 v 0 c 0.01,0.011 0.021,0.023 0.032,0.029 v 0 c 2.72,-0.67 5.559,-1.041 8.483,-1.041 v 0 c 1.708,0 3.386,0.127 5.028,0.363 v 0 C 84.658,11.709 82.157,10.561 79.564,9.604 v 0 C 79.482,9.573 79.4,9.542 79.317,9.513 v 0 C 78.841,9.339 78.361,9.172 77.879,9.012 v 0 C 77.717,8.958 77.553,8.908 77.39,8.855 v 0 C 76.681,8.627 75.964,8.414 75.241,8.215 v 0 C 74.891,8.118 74.539,8.022 74.185,7.933 v 0 C 73.858,7.849 73.529,7.768 73.2,7.691 v 0 C 72.616,7.554 72.03,7.424 71.438,7.306 v 0 C 71.23,7.265 71.019,7.225 70.808,7.186 v 0 C 70.188,7.07 69.565,6.965 68.937,6.87 v 0 C 68.736,6.839 68.532,6.809 68.329,6.781 v 0 C 67.573,6.676 66.814,6.58 66.049,6.506 v 0 c -0.007,0 -0.015,-0.002 -0.021,-0.002 v 0 C 65.501,6.453 64.969,6.413 64.436,6.377 v 0 C 64.332,6.369 64.227,6.361 64.122,6.356 v 0 C 63.657,6.328 63.193,6.305 62.725,6.289 v 0 C 62.626,6.286 62.528,6.279 62.429,6.277 v 0 C 61.87,6.26 61.309,6.248 60.745,6.248 v 0 c -0.496,0 -0.989,0.012 -1.481,0.024 v 0 10e-4 c -1.159,0.032 -2.309,0.1 -3.45,0.202 v 0 c -0.013,0.001 -0.027,0.003 -0.04,0.004 v 0 c -1.122,0.102 -2.233,0.24 -3.334,0.409 v 0 c -0.038,0.006 -0.078,0.011 -0.116,0.018 v 0 c -1.08,0.167 -2.148,0.368 -3.206,0.598 v 0 C 49.06,7.518 49.001,7.53 48.942,7.543 v 0 c -1.04,0.23 -2.068,0.49 -3.084,0.779 v 0 c -0.074,0.022 -0.147,0.043 -0.221,0.065 v 0 c -1.003,0.289 -1.994,0.606 -2.974,0.95 v 0 c -0.079,0.029 -0.158,0.058 -0.237,0.087 v 0 c -0.974,0.348 -1.937,0.722 -2.884,1.124 v 0 c -0.073,0.03 -0.144,0.063 -0.216,0.094 v 0 c -0.954,0.41 -1.897,0.842 -2.823,1.305 v 0 c -0.048,0.024 -0.094,0.049 -0.143,0.073 v 0 c -0.949,0.477 -1.886,0.979 -2.804,1.51 v 0 c 0.01,-0.003 0.018,-0.004 0.028,-0.005 v 0 c 1.852,-0.3 3.747,-0.464 5.684,-0.464 v 0 c 17.932,0 32.785,13.425 35.039,30.754 v 0 c -2.02,-0.77 -4.114,-1.387 -6.272,-1.831 v 0 c -0.006,-0.025 -0.009,-0.047 -0.015,-0.07 v 0 c -0.201,-0.02 -0.401,-0.033 -0.6,-0.051 v 0 c -2.485,-0.47 -5.049,-0.72 -7.671,-0.72 v 0 c -21.035,0 -38.355,15.888 -40.624,36.318 v 0 c -0.653,-0.48 -1.27,-0.967 -1.865,-1.457 v 0 C 12.404,72.124 8.593,66.996 6.312,61.11 v 0 0.004 C 6.291,61.064 6.269,61.016 6.25,60.966 v 0 c 0.004,0.929 0.038,1.85 0.088,2.767 v 0 c 0.009,0.152 0.016,0.304 0.025,0.456 v 0 c 0.056,0.895 0.133,1.785 0.233,2.668 v 0 c 0.014,0.124 0.03,0.246 0.045,0.37 v 0 c 0.22,1.841 0.53,3.653 0.93,5.432 v 0 c 0.023,0.107 0.047,0.213 0.071,0.319 v 0 c 0.205,0.89 0.429,1.77 0.678,2.642 v 0 c 0.014,0.054 0.03,0.107 0.046,0.159 v 0 c 0.518,1.799 1.126,3.561 1.819,5.279 v 0 c 0.027,0.066 0.053,0.132 0.079,0.197 v 0 c 0.352,0.86 0.721,1.71 1.115,2.548 v 0 c 4.646,9.904 12.183,18.193 21.52,23.768 v 0 c -0.022,-0.028 -0.043,-0.057 -0.063,-0.083 v 0 c 8.161,4.883 17.706,7.691 27.909,7.691 M 78.33,18.761 c 6.115,7.469 9.961,16.86 10.467,27.122 v 0 c 0.582,12.976 -4.395,22.902 -7.691,27.985 v 0 c -0.865,1.304 -1.791,2.565 -2.78,3.772 v 0 c 13.279,1.756 21.863,-5.347 25.702,-9.577 v 0 c 0.002,0.006 0.004,0.009 0.006,0.015 v 0 c 4.758,-5.265 7.662,-12.237 7.662,-19.877 v 0 c 0,-16.364 -13.309,-29.674 -29.675,-29.674 v 0 c -1.247,0 -2.481,0.082 -3.691,0.234 M 9.791,48.397 c 0,6.743 2.282,12.966 6.11,17.937 v 0 c 0.186,-0.512 0.385,-1.012 0.586,-1.513 v 0 C 19.216,58.303 32.045,33.057 66.034,36.062 v 0 c 0,0 -0.118,-0.269 -0.36,-0.736 v 0 C 63.321,30.592 59.736,26.582 55.334,23.709 v 0 C 52.312,21.672 48.59,19.998 44.096,19.317 v 0 c -1.571,-0.262 -3.183,-0.399 -4.828,-0.399 v 0 c -16.253,0 -29.477,13.223 -29.477,29.479"
               style="fill:url(#linearGradient28);stroke:none"
               id="path30" /></g></g></g></g></g></svg>
