<svg id="Layer_1" data-name="Layer 1" xmlns="http://www.w3.org/2000/svg" xmlns:xlink="http://www.w3.org/1999/xlink" viewBox="0 0 575.1 183.61"><defs><style>.cls-1{fill:#353535;}.cls-2{fill:url(#linear-gradient);}</style><linearGradient id="linear-gradient" x1="51.26" y1="225.05" x2="157.76" y2="376.14" gradientUnits="userSpaceOnUse"><stop offset="0" stop-color="#8dc33f"/><stop offset="1" stop-color="#00a7a7"/></linearGradient></defs><path class="cls-1" d="M260.25,314.69a25.81,25.81,0,0,1-23.53,5.21,25.2,25.2,0,0,1-6.14-2.62,26.17,26.17,0,0,1-5.22-4,25,25,0,0,1-4-5.23,26.07,26.07,0,0,1-2.6-6.18,25.58,25.58,0,0,1-.92-6.86,25.23,25.23,0,0,1,.92-6.82,26.2,26.2,0,0,1,2.6-6.15,25.16,25.16,0,0,1,4-5.22,25.81,25.81,0,0,1,5.22-4,26.34,26.34,0,0,1,6.14-2.59,25.93,25.93,0,0,1,15.76.66,25.86,25.86,0,0,1,7.77,4.55l-5.22,8.7a16.85,16.85,0,0,0-5.23-3.6,15.55,15.55,0,0,0-12.38-.05,16.45,16.45,0,0,0-5,3.39,15.89,15.89,0,0,0-3.41,5,15.09,15.09,0,0,0-1.26,6.14,15.34,15.34,0,0,0,1.26,6.2,16.06,16.06,0,0,0,8.44,8.46,15.17,15.17,0,0,0,6.15,1.26,14.32,14.32,0,0,0,3.65-.46,16.28,16.28,0,0,0,3.38-1.25V295h9.65Z" transform="translate(-12.33 -208.26)"/><path class="cls-1" d="M303,300.76a20,20,0,0,1-1.5,7.78,19.4,19.4,0,0,1-4.08,6.24,18.84,18.84,0,0,1-6,4.14,18.85,18.85,0,0,1-14.83,0,19,19,0,0,1-10.15-10.38,20,20,0,0,1-1.5-7.78,20.39,20.39,0,0,1,1.5-7.87,18.95,18.95,0,0,1,10.15-10.38,18.57,18.57,0,0,1,7.4-1.49,19.53,19.53,0,0,1,7.43,1.41,18,18,0,0,1,6,4,19,19,0,0,1,4.08,6.24A21,21,0,0,1,303,300.76Zm-9.58,0a11.08,11.08,0,0,0-.75-4.16,9.85,9.85,0,0,0-2-3.2,8.78,8.78,0,0,0-3-2.06,9.87,9.87,0,0,0-7.35,0,8.61,8.61,0,0,0-3,2.06,9.6,9.6,0,0,0-2,3.2,11.28,11.28,0,0,0-.74,4.16,10.75,10.75,0,0,0,.74,4,9.91,9.91,0,0,0,2,3.2,9.26,9.26,0,0,0,3,2.14,8.66,8.66,0,0,0,3.68.79,9.43,9.43,0,0,0,3.67-.73,9.07,9.07,0,0,0,3-2.06,9.64,9.64,0,0,0,2-3.2A11.11,11.11,0,0,0,293.4,300.76Z" transform="translate(-12.33 -208.26)"/><path class="cls-1" d="M294.06,334v-9.58l5.26.07a8.13,8.13,0,0,0,3.55-.78,9.22,9.22,0,0,0,2.84-2.09,10.39,10.39,0,0,0,1.9-3,9.52,9.52,0,0,0,.69-3.59V282.45H318V315H318a19.68,19.68,0,0,1-.72,5,18.57,18.57,0,0,1-4.93,8.37,19,19,0,0,1-3.84,3,18.81,18.81,0,0,1-9.56,2.6Zm25.52-61.64a6.13,6.13,0,0,1-.5,2.47,6.54,6.54,0,0,1-1.36,2,6.28,6.28,0,0,1-2,1.35,6.09,6.09,0,0,1-2.46.51,6.24,6.24,0,0,1-2.52-.51,6.42,6.42,0,0,1-3.41-3.36,6,6,0,0,1-.51-2.47,6,6,0,0,1,.51-2.45,6.2,6.2,0,0,1,1.38-2,6.52,6.52,0,0,1,2-1.36,6.24,6.24,0,0,1,2.52-.51,6.09,6.09,0,0,1,2.46.51,6.35,6.35,0,0,1,3.38,3.38A6.21,6.21,0,0,1,319.58,272.31Z" transform="translate(-12.33 -208.26)"/><path class="cls-1" d="M336.4,272.31a6.13,6.13,0,0,1-.5,2.47,6.27,6.27,0,0,1-1.38,2,6.55,6.55,0,0,1-2,1.35,6.16,6.16,0,0,1-2.49.51,6.09,6.09,0,0,1-2.49-.51,6.17,6.17,0,0,1-2-1.35,6.75,6.75,0,0,1-1.37-2,6.13,6.13,0,0,1-.5-2.47,6.21,6.21,0,0,1,.5-2.45,6.68,6.68,0,0,1,1.37-2,6.36,6.36,0,0,1,2-1.36A6.09,6.09,0,0,1,330,266a6.16,6.16,0,0,1,2.49.51,6.76,6.76,0,0,1,2,1.36,6.26,6.26,0,0,1,1.88,4.47Zm-1.64,47.43h-9.57V282.45h9.57Z" transform="translate(-12.33 -208.26)"/><path class="cls-1" d="M402.84,314.62a25.62,25.62,0,0,1-29.75,2.66,25.67,25.67,0,0,1-5.24-4,26.36,26.36,0,0,1-4.06-5.24,25.88,25.88,0,0,1-2.61-6.16,26,26,0,0,1,0-13.7,25.93,25.93,0,0,1,2.61-6.19,26.36,26.36,0,0,1,4.06-5.24,25.84,25.84,0,0,1,11.4-6.67,25.43,25.43,0,0,1,6.84-.92,25.92,25.92,0,0,1,9,1.58,24.86,24.86,0,0,1,7.8,4.62l-5.29,8.7a15.06,15.06,0,0,0-5.19-3.64,16,16,0,0,0-6.27-1.27,15.41,15.41,0,0,0-6.2,1.26,16.39,16.39,0,0,0-5.05,3.4,16,16,0,0,0-3.41,5,15.55,15.55,0,0,0-1.25,6.18,15.34,15.34,0,0,0,1.25,6.15,16.51,16.51,0,0,0,3.41,5,16.25,16.25,0,0,0,5.05,3.41,15.41,15.41,0,0,0,6.2,1.26,15.84,15.84,0,0,0,6.27-1.28,14.77,14.77,0,0,0,5.19-3.63Z" transform="translate(-12.33 -208.26)"/><path class="cls-1" d="M417.12,319.74h-9.5V282.45h2.29l3.13,4.42a16.91,16.91,0,0,1,11.29-4.36h8.39V292h-8.39a7.14,7.14,0,0,0-5.12,2.09,6.91,6.91,0,0,0-1.53,2.3,7.19,7.19,0,0,0-.56,2.81Z" transform="translate(-12.33 -208.26)"/><path class="cls-1" d="M445.85,334v-9.58l5.3.07a8,8,0,0,0,2.67-.45,9.17,9.17,0,0,0,4.32-3.15,10.26,10.26,0,0,0,1.36-2.39c-1,.45-2.11.88-3.19,1.33a8.54,8.54,0,0,1-3.25.66,17.25,17.25,0,0,1-6.48-1.22,15.8,15.8,0,0,1-8.9-8.93,19.12,19.12,0,0,1-1.3-7.23V282.45h9.47v20.61a9.41,9.41,0,0,0,.58,3.47A7.31,7.31,0,0,0,448,309a6.24,6.24,0,0,0,2.28,1.48,7.87,7.87,0,0,0,2.81.49,5.9,5.9,0,0,0,2.76-.68,7.71,7.71,0,0,0,2.29-1.8,8.51,8.51,0,0,0,1.53-2.52,7.87,7.87,0,0,0,.55-2.91V282.45h9.58V315a18.76,18.76,0,0,1-1.53,7.39,19.28,19.28,0,0,1-4.09,6,19.48,19.48,0,0,1-6,4.07,18.32,18.32,0,0,1-7.39,1.5Z" transform="translate(-12.33 -208.26)"/><path class="cls-1" d="M486.59,334H477v-51.5h2.29l3.8,4.49a25.86,25.86,0,0,1,2.82-2.3,21.37,21.37,0,0,1,3.19-1.86,18.26,18.26,0,0,1,3.43-1.24,14.45,14.45,0,0,1,3.58-.45,19.42,19.42,0,0,1,7.4,1.41,18.06,18.06,0,0,1,6.06,4,18.53,18.53,0,0,1,4.1,6.21,21.15,21.15,0,0,1,1.49,8.06,21.88,21.88,0,0,1-1.49,8.27,18.23,18.23,0,0,1-4.1,6.23,17.45,17.45,0,0,1-6.06,3.92,20,20,0,0,1-7.4,1.36,11.12,11.12,0,0,1-2.49-.28,15.14,15.14,0,0,1-2.43-.75,23.82,23.82,0,0,1-2.37-1.06c-.78-.39-1.53-.8-2.25-1.22Zm19.05-33.19a11.36,11.36,0,0,0-.75-4.24,9.25,9.25,0,0,0-2-3.19,8.66,8.66,0,0,0-3-2,9.73,9.73,0,0,0-3.69-.7,9.59,9.59,0,0,0-3.67.7,8.77,8.77,0,0,0-3,2,9.4,9.4,0,0,0-2,3.19,11.36,11.36,0,0,0-.75,4.24,11.11,11.11,0,0,0,.75,4.15,9.64,9.64,0,0,0,2,3.2,9.07,9.07,0,0,0,3,2.06,9.43,9.43,0,0,0,3.67.73,9.56,9.56,0,0,0,3.69-.73,9,9,0,0,0,3-2.06,9.49,9.49,0,0,0,2-3.2A11.11,11.11,0,0,0,505.64,300.76Z" transform="translate(-12.33 -208.26)"/><path class="cls-1" d="M538.86,319.74a16.29,16.29,0,0,1-6.47-1.3,16.8,16.8,0,0,1-8.9-8.9,16,16,0,0,1-1.31-6.48V292h-4.64v-9.48h4.64v-14.9h9.47v14.9h14.42V292H531.65v11.07a7.16,7.16,0,0,0,2.09,5.09,7.4,7.4,0,0,0,2.3,1.55,7,7,0,0,0,2.82.57h7.21v9.47Z" transform="translate(-12.33 -208.26)"/><path class="cls-1" d="M587.44,300.76a20,20,0,0,1-1.5,7.78,19.4,19.4,0,0,1-4.08,6.24,18.84,18.84,0,0,1-6,4.14,18.85,18.85,0,0,1-14.83,0,19,19,0,0,1-10.15-10.38,20,20,0,0,1-1.5-7.78,20.39,20.39,0,0,1,1.5-7.87A18.95,18.95,0,0,1,561,282.51a18.6,18.6,0,0,1,7.4-1.49,19.5,19.5,0,0,1,7.43,1.41,18,18,0,0,1,6,4,19,19,0,0,1,4.08,6.24A21,21,0,0,1,587.44,300.76Zm-9.58,0a11.08,11.08,0,0,0-.75-4.16,9.53,9.53,0,0,0-2-3.2,8.69,8.69,0,0,0-3-2.06,9.87,9.87,0,0,0-7.35,0,8.71,8.71,0,0,0-3,2.06,9.76,9.76,0,0,0-2,3.2,11.28,11.28,0,0,0-.73,4.16,10.75,10.75,0,0,0,.73,4,10.08,10.08,0,0,0,2,3.2,9.37,9.37,0,0,0,3,2.14,8.69,8.69,0,0,0,3.68.79,9.39,9.39,0,0,0,3.67-.73,9,9,0,0,0,3-2.06,9.34,9.34,0,0,0,2-3.2A11.11,11.11,0,0,0,577.86,300.76Z" transform="translate(-12.33 -208.26)"/><path class="cls-2" d="M104.14,208.26a91.81,91.81,0,1,0,91.8,91.8A91.9,91.9,0,0,0,104.14,208.26Zm9.61,62a54,54,0,0,0-28.88,33.29,45.51,45.51,0,0,1-10-6.4,62.55,62.55,0,0,1,25.83-34.59,48.56,48.56,0,0,1,12-5.9,61.21,61.21,0,0,1,20.61-3.62h.93a58.53,58.53,0,0,1,13.7,1.59l1.41.37.2,0c1.08.29,2.15.62,3.23,1l.51.18,1.07.39c.94.35,1.87.73,2.82,1.15l0-.27h0c-.65-8.18-4.1-16.08-6.29-20.34a53.29,53.29,0,0,0-5.87-8.6A82.41,82.41,0,0,1,186.5,300a53.65,53.65,0,0,0-63.06-33.09A59.94,59.94,0,0,0,113.75,270.3Zm48.46,12.15A61.42,61.42,0,0,1,146.15,311a70,70,0,0,0-15.44-36.46,44.74,44.74,0,0,1,31.5,7.92ZM103.92,288a44.51,44.51,0,0,1,10.6,18.47,44.57,44.57,0,0,1-21.29,0A44.81,44.81,0,0,1,103.92,288ZM68,289.87A44.58,44.58,0,0,1,59,263c0-1,0-2,.11-3a61,61,0,0,1,31.24-.81A70,70,0,0,0,68,289.87Zm35.85-71.75A44.86,44.86,0,0,1,145,245.22a69.37,69.37,0,0,0-45,7.56,69.86,69.86,0,0,0-39.16-2.39A44.91,44.91,0,0,1,103.84,218.12ZM62.05,229.29a53.67,53.67,0,0,0,54,86c.09,1.15.15,2.31.15,3.49a43.91,43.91,0,0,1-1.1,9.79c-2.49.23-4.89.36-7.22.42-1.78.16-3.58.26-5.4.26a61.06,61.06,0,0,1-25.63-5.61,54.17,54.17,0,0,1-20-14.68,61.3,61.3,0,0,1-15.51-34.24c-1,.76-2,1.55-3,2.33a53.69,53.69,0,0,0-16.64,22.73A82.4,82.4,0,0,1,62.05,229.29Zm50.08,108.08a44.79,44.79,0,0,1-20.11,21,60.93,60.93,0,0,1-16.46-25.67,70,70,0,0,0,27,5.38A70.84,70.84,0,0,0,112.13,337.37Zm-85-18.64a44.31,44.31,0,0,1,9.23-27.11A70.77,70.77,0,0,0,65,327.18,69.41,69.41,0,0,0,83,361.83a44.56,44.56,0,0,1-55.83-43.1Zm77,63.69a81.85,81.85,0,0,1-41.1-11,53.35,53.35,0,0,0,47.59-89.15,44.63,44.63,0,0,1,10.37-5.4,61.4,61.4,0,0,1,15,27.52l.06-.06.15.63c.1.56.21,1.12.3,1.67a60.52,60.52,0,0,1,1,7.18,64,64,0,0,1,.38,8.36h0c0,1.15-.09,2.32-.19,3.5h0a47.29,47.29,0,0,1-4.9,17.73,60.72,60.72,0,0,1-12.1,18.27l-.36.37c-.42.42-.82.83-1.23,1.22l-.32.31-1.05,1-.22.21-1.18,1-.23.19c-.82.69-1.57,1.29-2.25,1.81l0,0a43.54,43.54,0,0,0,9.51,3.38l0,0a53.65,53.65,0,0,0,12.82,1.57,52.8,52.8,0,0,0,7.6-.55A81.82,81.82,0,0,1,104.14,382.42Zm32.15-18.55a44.54,44.54,0,0,1-5.57-.36,70,70,0,0,0,15.82-41,70.76,70.76,0,0,0,23-33.55,44.82,44.82,0,0,1-33.27,74.89Z" transform="translate(-12.33 -208.26)"/></svg>