<svg id="Layer_1" data-name="Layer 1" xmlns="http://www.w3.org/2000/svg" xmlns:xlink="http://www.w3.org/1999/xlink" viewBox="0 0 576.28 478.59"><defs><style>.cls-1{fill:url(#linear-gradient);}.cls-2{fill:#353535;}</style><linearGradient id="linear-gradient" x1="200.7" y1="91.18" x2="398.65" y2="372" gradientUnits="userSpaceOnUse"><stop offset="0" stop-color="#8dc33f"/><stop offset="1" stop-color="#00a7a7"/></linearGradient></defs><path class="cls-1" d="M299,60c-94.09,0-170.64,76.55-170.64,170.63S204.89,401.24,299,401.24,469.62,324.69,469.62,230.6,393.07,60,299,60Zm17.87,115.32a100.34,100.34,0,0,0-53.68,61.86,83.85,83.85,0,0,1-18.51-11.89c7.67-26.82,25.3-49.15,48-64.28,7.11-4.73,16.06-9.23,22.3-11a113.92,113.92,0,0,1,38.3-6.72l1.74,0a108.76,108.76,0,0,1,25.46,3c.87.21,1.74.43,2.63.67l.37.1c2,.54,4,1.15,6,1.84l1,.34,2,.72q2.61,1,5.23,2.14c0-.17,0-.34-.05-.51l.05,0c-1.2-15.2-7.62-29.88-11.68-37.81a99.75,99.75,0,0,0-10.91-16,153.18,153.18,0,0,1,77,132.66,99.77,99.77,0,0,0-117.22-61.51A111.89,111.89,0,0,0,316.85,175.29Zm90.07,22.58a114.3,114.3,0,0,1-29.85,53,130.21,130.21,0,0,0-28.7-67.78,83.14,83.14,0,0,1,58.55,14.73ZM298.58,208.26a82.67,82.67,0,0,1,19.7,34.32,82.92,82.92,0,0,1-39.57,0A83.45,83.45,0,0,1,298.58,208.26Zm-66.78,3.4a82.86,82.86,0,0,1-16.73-50c0-1.87.09-3.73.21-5.57a113.34,113.34,0,0,1,58.06-1.5A130,130,0,0,0,231.8,211.66ZM298.43,78.29a83.42,83.42,0,0,1,76.51,50.38,128.81,128.81,0,0,0-83.73,14,130.06,130.06,0,0,0-72.78-4.43A83.48,83.48,0,0,1,298.43,78.29ZM220.76,99.06A99.73,99.73,0,0,0,321.18,258.81c.17,2.14.28,4.3.28,6.48a82.76,82.76,0,0,1-2,18.21c-4.63.43-9.1.68-13.43.78-3.31.3-6.65.49-10,.49a113.47,113.47,0,0,1-47.64-10.43,100.69,100.69,0,0,1-37.1-27.28,113.92,113.92,0,0,1-28.83-63.66c-2,1.42-3.79,2.88-5.57,4.34A99.81,99.81,0,0,0,145.9,230,153.15,153.15,0,0,1,220.76,99.06Zm93.08,200.88a83.4,83.4,0,0,1-37.37,39,113.14,113.14,0,0,1-30.6-47.71,129.15,129.15,0,0,0,68,8.72Zm-158-34.65A82.32,82.32,0,0,1,173,214.9,131.47,131.47,0,0,0,226.25,281a129,129,0,0,0,33.37,64.39,82.81,82.81,0,0,1-103.78-80.11ZM299,383.69a152.2,152.2,0,0,1-76.38-20.45,99.18,99.18,0,0,0,115.31-97.95,98.81,98.81,0,0,0-26.85-67.76,83,83,0,0,1,19.26-10,114.16,114.16,0,0,1,27.87,51.16l.11-.11c.09.37.17.76.27,1.17.19,1,.39,2.08.56,3.11A114.35,114.35,0,0,1,361,256.15a119.21,119.21,0,0,1,.7,15.54h.07c-.05,2.13-.17,4.3-.34,6.5l-.08,0a88.3,88.3,0,0,1-9.11,33,112.45,112.45,0,0,1-22.5,33.94l-.67.69c-.77.8-1.52,1.55-2.28,2.27l-.6.58c-.66.63-1.31,1.23-1.94,1.81l-.42.39c-.75.67-1.48,1.3-2.18,1.91l-.44.36c-1.51,1.28-2.92,2.4-4.18,3.36l.1,0a81.18,81.18,0,0,0,17.68,6.28l.09-.08a98.58,98.58,0,0,0,38,1.9A152.09,152.09,0,0,1,299,383.69Zm59.77-34.49a82.73,82.73,0,0,1-10.37-.66,130.15,130.15,0,0,0,29.41-76.18A131.33,131.33,0,0,0,420.59,210a83.32,83.32,0,0,1-61.84,139.2Z" transform="translate(-11.86 -59.97)"/><path class="cls-2" d="M78,508.42A40,40,0,0,1,52,518a39.31,39.31,0,0,1-10.67-1.44,39.76,39.76,0,0,1-9.58-4.07,40.67,40.67,0,0,1-8.14-6.3,39.07,39.07,0,0,1-6.3-8.14,41,41,0,0,1-4.05-9.64,39.9,39.9,0,0,1-1.43-10.69,39.37,39.37,0,0,1,1.43-10.64,40.87,40.87,0,0,1,4.05-9.58,38.87,38.87,0,0,1,6.3-8.15A40.29,40.29,0,0,1,41.36,439a40.31,40.31,0,0,1,24.57,1A40.19,40.19,0,0,1,78,447.13l-8.15,13.58a26.07,26.07,0,0,0-8.14-5.62,24.34,24.34,0,0,0-19.3-.09,25.64,25.64,0,0,0-7.85,5.3,25.1,25.1,0,0,0-5.32,7.81,23.77,23.77,0,0,0-2,9.59,24.11,24.11,0,0,0,2,9.66,25.08,25.08,0,0,0,13.17,13.19,23.56,23.56,0,0,0,9.58,2,23.08,23.08,0,0,0,5.71-.71A26.75,26.75,0,0,0,63,499.85V477.7H78Z" transform="translate(-11.86 -59.97)"/><path class="cls-2" d="M144.65,486.71a31.18,31.18,0,0,1-2.34,12.13,30.26,30.26,0,0,1-6.35,9.72,29.79,29.79,0,0,1-9.41,6.46,29.4,29.4,0,0,1-23.13,0,29.75,29.75,0,0,1-15.83-16.18,31.17,31.17,0,0,1-2.33-12.13,31.7,31.7,0,0,1,2.33-12.27,29.57,29.57,0,0,1,15.83-16.18A28.84,28.84,0,0,1,115,455.92a30.62,30.62,0,0,1,11.6,2.2,28.12,28.12,0,0,1,9.41,6.25,29.31,29.31,0,0,1,6.35,9.72A32.8,32.8,0,0,1,144.65,486.71Zm-14.93,0a17.24,17.24,0,0,0-1.17-6.49,15.28,15.28,0,0,0-3.18-5,13.67,13.67,0,0,0-4.69-3.21,15.32,15.32,0,0,0-11.45,0,13.63,13.63,0,0,0-4.68,3.21,15.3,15.3,0,0,0-3.12,5,17.65,17.65,0,0,0-1.14,6.49,16.85,16.85,0,0,0,1.14,6.25,15.58,15.58,0,0,0,3.12,5,14.57,14.57,0,0,0,4.68,3.34,13.58,13.58,0,0,0,5.72,1.23,14.51,14.51,0,0,0,5.73-1.14,14.1,14.1,0,0,0,4.69-3.21,14.77,14.77,0,0,0,3.18-5A17.27,17.27,0,0,0,129.72,486.71Z" transform="translate(-11.86 -59.97)"/><path class="cls-2" d="M130.75,538.45V523.52l8.2.11a12.62,12.62,0,0,0,5.54-1.23,14.43,14.43,0,0,0,4.42-3.25,15.74,15.74,0,0,0,3-4.7,14.54,14.54,0,0,0,1.09-5.59V458.15H168.1v50.71H168a30.21,30.21,0,0,1-1.11,7.87,29.38,29.38,0,0,1-3,7.09,30.61,30.61,0,0,1-4.67,6,30,30,0,0,1-13,7.6,28.82,28.82,0,0,1-7.85,1.06Zm39.79-96.09a9.57,9.57,0,0,1-.78,3.85,10.26,10.26,0,0,1-2.12,3.12,9.91,9.91,0,0,1-3.14,2.11,9.51,9.51,0,0,1-3.84.8,9.69,9.69,0,0,1-3.93-.8,10.33,10.33,0,0,1-3.18-2.11,10,10,0,0,1-2.14-3.12,9.73,9.73,0,0,1,0-7.68,9.76,9.76,0,0,1,2.14-3.15,10.54,10.54,0,0,1,3.18-2.12,9.85,9.85,0,0,1,3.93-.79,9.67,9.67,0,0,1,3.84.79,9.92,9.92,0,0,1,5.26,5.27A9.65,9.65,0,0,1,170.54,442.36Z" transform="translate(-11.86 -59.97)"/><path class="cls-2" d="M196.77,442.36a9.57,9.57,0,0,1-.79,3.85,10.14,10.14,0,0,1-2.14,3.12,10.33,10.33,0,0,1-3.18,2.11,9.83,9.83,0,0,1-7.77,0,9.8,9.8,0,0,1-3.14-2.11,10.08,10.08,0,0,1-2.12-3.12,9.73,9.73,0,0,1,0-7.68,9.87,9.87,0,0,1,2.12-3.15,10,10,0,0,1,3.14-2.12,9.95,9.95,0,0,1,7.77,0,10.54,10.54,0,0,1,3.18,2.12,9.93,9.93,0,0,1,2.14,3.15A9.65,9.65,0,0,1,196.77,442.36Zm-2.55,73.94H179.29V458.15h14.93Z" transform="translate(-11.86 -59.97)"/><path class="cls-2" d="M300.35,508.32A39.92,39.92,0,0,1,274.24,518a39.31,39.31,0,0,1-10.67-1.44,40.57,40.57,0,0,1-28.18-28.18,40.56,40.56,0,0,1,0-21.35,40.12,40.12,0,0,1,4.08-9.65A40.78,40.78,0,0,1,254,442.87a40.31,40.31,0,0,1,9.61-4.07,39.31,39.31,0,0,1,10.67-1.44,40.12,40.12,0,0,1,13.95,2.47A39,39,0,0,1,300.35,447l-8.25,13.57a23.61,23.61,0,0,0-8.09-5.67,24.77,24.77,0,0,0-9.77-2,24,24,0,0,0-9.66,1.95,25.53,25.53,0,0,0-7.88,5.3,24.75,24.75,0,0,0-5.32,7.87,23.94,23.94,0,0,0-1.95,9.64,23.55,23.55,0,0,0,1.95,9.58,25.05,25.05,0,0,0,13.2,13.17,24,24,0,0,0,9.66,1.95,24.77,24.77,0,0,0,9.77-2,23.23,23.23,0,0,0,8.09-5.68Z" transform="translate(-11.86 -59.97)"/><path class="cls-2" d="M322.61,516.3H307.79V458.15h3.58l4.88,6.9a26.29,26.29,0,0,1,17.6-6.79h13.08V473H333.85a11.18,11.18,0,0,0-8,3.26,11,11,0,0,0-2.38,3.58,11.18,11.18,0,0,0-.87,4.4Z" transform="translate(-11.86 -59.97)"/><path class="cls-2" d="M367.41,538.45V523.52l8.24.11a12.53,12.53,0,0,0,4.18-.71,14.36,14.36,0,0,0,3.72-1.95,14.56,14.56,0,0,0,3-3,15.57,15.57,0,0,0,2.12-3.72c-1.63.69-3.28,1.37-5,2.06a13.26,13.26,0,0,1-5.07,1,26.92,26.92,0,0,1-10.1-1.9,24.58,24.58,0,0,1-13.87-13.93,29.72,29.72,0,0,1-2-11.26V458.15h14.77V490.3a14.87,14.87,0,0,0,.89,5.4,11.17,11.17,0,0,0,2.41,3.85,9.73,9.73,0,0,0,3.56,2.31,12.28,12.28,0,0,0,4.37.76,9.25,9.25,0,0,0,4.31-1.06,12,12,0,0,0,3.56-2.8,13.13,13.13,0,0,0,2.38-3.94,12,12,0,0,0,.88-4.52V458.15H404.7V509a29.1,29.1,0,0,1-2.4,11.51,29.87,29.87,0,0,1-6.36,9.39,30.59,30.59,0,0,1-9.43,6.35A28.51,28.51,0,0,1,375,538.56Z" transform="translate(-11.86 -59.97)"/><path class="cls-2" d="M430.92,538.45H416v-80.3h3.59l5.92,7a39.31,39.31,0,0,1,4.39-3.59,33.18,33.18,0,0,1,5-2.9,28.69,28.69,0,0,1,5.35-1.93,22.46,22.46,0,0,1,5.58-.7,30.2,30.2,0,0,1,11.54,2.2,28.44,28.44,0,0,1,9.45,6.21,29.25,29.25,0,0,1,6.38,9.69,32.87,32.87,0,0,1,2.33,12.57,34,34,0,0,1-2.33,12.89,28.68,28.68,0,0,1-6.38,9.72,27.73,27.73,0,0,1-9.45,6.11,31.34,31.34,0,0,1-11.54,2.12,17.62,17.62,0,0,1-3.88-.44,27.66,27.66,0,0,1-3.8-1.16c-1.24-.49-2.48-1.05-3.69-1.66s-2.38-1.25-3.5-1.9Zm29.69-51.74a17.71,17.71,0,0,0-1.16-6.62,14.87,14.87,0,0,0-3.17-5,13.74,13.74,0,0,0-4.73-3.12,15.25,15.25,0,0,0-5.76-1.09,15,15,0,0,0-5.72,1.09,13.48,13.48,0,0,0-4.69,3.12,14.44,14.44,0,0,0-3.18,5,17.71,17.71,0,0,0-1.17,6.62,17.27,17.27,0,0,0,1.17,6.46,14.62,14.62,0,0,0,3.18,5,14,14,0,0,0,4.69,3.21,14.5,14.5,0,0,0,5.72,1.14,14.73,14.73,0,0,0,5.76-1.14,14.27,14.27,0,0,0,4.73-3.21,15.06,15.06,0,0,0,3.17-5A17.27,17.27,0,0,0,460.61,486.71Z" transform="translate(-11.86 -59.97)"/><path class="cls-2" d="M512.4,516.3a25.3,25.3,0,0,1-10.09-2,26.3,26.3,0,0,1-13.87-13.88,25.16,25.16,0,0,1-2-10.09V473h-7.23V458.26h7.23V435h14.76v23.23h22.47V473H501.17V490.3a11,11,0,0,0,.87,4.36,11.1,11.1,0,0,0,6,6,10.88,10.88,0,0,0,4.39.9h11.24V516.3Z" transform="translate(-11.86 -59.97)"/><path class="cls-2" d="M588.14,486.71a31.36,31.36,0,0,1-2.33,12.13,30.6,30.6,0,0,1-6.35,9.72A29.83,29.83,0,0,1,570,515a29.4,29.4,0,0,1-23.13,0,29.75,29.75,0,0,1-15.83-16.18,31.36,31.36,0,0,1-2.34-12.13,31.89,31.89,0,0,1,2.34-12.27,30.1,30.1,0,0,1,6.38-9.74,29.69,29.69,0,0,1,9.45-6.44,28.89,28.89,0,0,1,11.54-2.34,30.54,30.54,0,0,1,11.59,2.2,28.16,28.16,0,0,1,9.42,6.25,29.63,29.63,0,0,1,6.35,9.72A33,33,0,0,1,588.14,486.71Zm-14.93,0a17.44,17.44,0,0,0-1.16-6.49,15.44,15.44,0,0,0-3.18-5,13.71,13.71,0,0,0-4.7-3.21,15.32,15.32,0,0,0-11.45,0,13.5,13.5,0,0,0-4.67,3.21,15.3,15.3,0,0,0-3.12,5,17.65,17.65,0,0,0-1.14,6.49,16.85,16.85,0,0,0,1.14,6.25,15.58,15.58,0,0,0,3.12,5,14.42,14.42,0,0,0,4.67,3.34,13.59,13.59,0,0,0,5.73,1.23,14.5,14.5,0,0,0,5.72-1.14,14.14,14.14,0,0,0,4.7-3.21,14.92,14.92,0,0,0,3.18-5A17.47,17.47,0,0,0,573.21,486.71Z" transform="translate(-11.86 -59.97)"/></svg>